<svg xmlns="http://www.w3.org/2000/svg" viewBox="0 0 100 100" aria-hidden="true">
  <title>Kandidatenbegleitung</title>
  <path fill="#d1eeeb" fill-rule="evenodd" d="m79.168 6.25c-0.53516 0-1.0664 0.20312-1.4727 0.60938l-12.5 12.5c-0.59766 0.59766-0.77344 1.4922-0.45312 2.2695 0.32422 0.77734 1.082 1.2852 1.9258 1.2852h6.25v14.582c0 1.1484 0.93359 2.082 2.082 2.082s2.082-0.93359 2.082-2.082v-16.668c0-1.1484-0.93359-2.082-2.082-2.082h-3.3047l7.4727-7.4727 7.4727 7.4727h-3.3047c-1.1484 0-2.082 0.93359-2.082 2.082v16.668c0 1.1484 0.93359 2.082 2.082 2.082 1.1484 0 2.082-0.93359 2.082-2.082v-14.582h6.25c0.83984 0 1.6016-0.50781 1.9258-1.2852s0.14453-1.6758-0.45312-2.2695l-12.5-12.5c-0.40625-0.41016-0.94141-0.60938-1.4727-0.60938zm-29.168 14.582c-0.53516 0-1.0664 0.20312-1.4727 0.60938l-12.5 12.5c-0.59766 0.59766-0.77344 1.4922-0.45312 2.2695 0.32422 0.77734 1.082 1.2852 1.9258 1.2852h6.25v25c0 1.1484 0.93359 2.082 2.082 2.082 1.1484 0 2.082-0.93359 2.082-2.082v-27.082c0-1.1484-0.93359-2.082-2.082-2.082h-3.3047l7.4727-7.4727 7.4727 7.4727h-3.3047c-1.1484 0-2.082 0.93359-2.082 2.082v18.75c0 1.1484 0.93359 2.082 2.082 2.082 1.1484 0 2.082-0.93359 2.082-2.082v-16.668h6.25c0.83984 0 1.6016-0.50781 1.9258-1.2852 0.32422-0.77734 0.14453-1.6758-0.45312-2.2695l-12.5-12.5c-0.40625-0.41016-0.94141-0.60938-1.4727-0.60938zm-27.082 14.582c-0.53516 0-1.0664 0.20313-1.4727 0.60938l-12.5 12.5c-0.59766 0.59766-0.77344 1.4922-0.45312 2.2695 0.32422 0.77734 1.082 1.2852 1.9258 1.2852h6.25v22.918c0 1.1484 0.93359 2.082 2.082 2.082s2.082-0.93359 2.082-2.082v-25c0-1.1484-0.93359-2.082-2.082-2.082h-3.3047l7.4727-7.4727 7.4727 7.4727h-3.3047c-1.1484 0-2.082 0.93359-2.082 2.082v16.668c0 1.1484 0.93359 2.082 2.082 2.082 1.1484 0 2.082-0.93359 2.082-2.082v-14.582h6.25c0.83984 0 1.6016-0.50781 1.9258-1.2852s0.14453-1.6758-0.45312-2.2695l-12.5-12.5c-0.40625-0.41016-0.94141-0.60938-1.4727-0.60938zm54.168 8.332c-1.1484 0-2.082 0.93359-2.082 2.082v12.5h-20.832c-1.1484 0-2.082 0.93359-2.082 2.082v8.332h-20.832c-1.1484 0-2.082 0.93359-2.082 2.082v8.332h-20.832c-1.1484 0-2.082 0.93359-2.082 2.082v10.418c0 1.1484 0.93359 2.082 2.082 2.082h83.332c1.1484 0 2.082-0.93359 2.082-2.082v-45.832c0-1.1484-0.93359-2.082-2.082-2.082h-14.582zm2.082 4.168h10.418v41.668h-79.168v-6.25h20.832c1.1484 0 2.082-0.93359 2.082-2.082v-8.332h20.832c1.1484 0 2.082-0.93359 2.082-2.082v-8.332h20.832c1.1484 0 2.082-0.93359 2.082-2.082v-12.5z"/>
</svg>
