<svg xmlns="http://www.w3.org/2000/svg" viewBox="0 0 100 100" aria-hidden="true">
  <title>Executive Search</title>
  <path fill="#d1eeeb" d="m50 11.23c-22.559 0-49.828 12.766-49.828 36.047 0 9.2578 4.7109 17.938 13.301 24.594 0.27344 2.6836-0.67969 6.5977-7.7695 9.1367-5.1602 1.7461-2.6562 7.6758 0.78906 7.6758 17.672 1.0117 22.801-7.1562 23.582-8.332 6.25 1.9531 13.062 2.9766 19.922 2.9766 22.02 0 49.824-12.004 49.824-36.051 0.003907-24.043-26.883-36.047-49.82-36.047zm-7.5234 67.758v-16.949s-1.8945 0.10156-1.8945 2.1328v14.562c-2.1172-0.30859-4.1797-0.71875-6.1797-1.2227v-14.699c0-6.0156 5.8281-10.891 11.844-10.891l3.3633 4.1094-3.3633 15.551 3.7539 3.832 3.7539-3.8359-3.3633-15.551 3.3594-4.1055c6.0156 0 11.844 4.875 11.844 10.891v14.703c-2 0.50781-4.0625 0.91406-6.1797 1.2266l0.003907-14.566c0-1.9883-1.8945-2.1328-1.8945-2.1328v16.945c-2.4492 0.28125-6.5469 1.0273-15.047 0zm7.5234-30.539c-5.0859 0-9.2109-4.125-9.2109-9.2109 0-5.0859 4.125-9.2109 9.2109-9.2109s9.2109 4.1211 9.2109 9.2109c0 5.0898-4.125 9.2109-9.2109 9.2109zm19.188 28.035v-13.672c0-9.2305-8.7227-13.109-10.941-13.789 2.7852-2.3516 4.5586-5.8594 4.5586-9.7812 0-7.0586-5.7422-12.801-12.801-12.801s-12.805 5.7422-12.805 12.801c0 3.918 1.7695 7.4297 4.5547 9.7773-2.2188 0.67969-10.941 4.6914-10.941 13.793v13.672c-0.93359-0.30078-1.8555-0.62109-2.7539-0.96484-0.49219 1.8828-4.4609 10.43-21.344 9.2617 0 0 13.051-3.4922 10.34-15.113-8.0508-5.7891-12.977-13.672-12.977-22.391 0-17.754 20.555-32.141 45.922-32.141 25.359 0 45.922 14.387 45.922 32.141 0 12.957-10.957 24.121-26.734 29.207z"/>
</svg>
