<svg xmlns="http://www.w3.org/2000/svg" viewBox="0 0 100 100" aria-hidden="true">
  <title>Active Sourcing</title>
  <path fill="#d1eeeb" d="m77.188 29.16c-5.2539-1.4844-10.137 3.8477-7.6562 9.1797 0.74219 1.6016 2.2852 2.9297 4.1211 3.4375 3.4766 0.97656 7.1094-1.0547 8.0859-4.5312 0.97656-3.4961-1.0547-7.1094-4.5508-8.0859zm-6.3086-1.7969c4.4727-2.5195 10.137-0.91797 12.637 3.5547 2.1875 3.8867 1.3086 8.7695-2.1094 11.641l3.457 3.9062h5.8984c6.0742 0 6.0742 9.3164 0 9.3164h-10.352l-3.457-3.0859-3.6133 7.3633 7.7539 5.7227c1.6602 1.2109 3.2227 2.3828 3.2227 4.7461v15.41h-9.1797l-0.23438-10.293-11.035-5.2734-5.4883 7.2656c-0.68359 0.89844-1.543 1.6016-2.5391 2.0117-0.95703 0.39062-2.0117 0.50781-3.1055 0.23437l-14.941-3.7109 2.207-8.9062 9.9023 2.2266c4.3359-7.1289 7.7734-13.438 11.348-20.059l-1.0938-0.039063-3.8477 4.3945c-2.4609 2.8125-6.2695 1.582-7.6758-1.1133-0.78125-1.5039-0.78125-3.3789 0.66406-5.0195l6.7969-7.7539 10.332-2.0312c-1.0742-4.1211 0.76172-8.4375 4.4531-10.508zm8.1641 16.641c-4.1797 1.7773-9.0625 0.23438-11.484-3.5938l-10.02 1.9727-6.1523 7.0508c-1.6211 1.8555 1.2891 4.3945 2.9102 2.5391l4.707-5.3906 6.7578 0.29297c-4.7656 8.7891-8.8281 16.406-14.531 25.684l-9.2188-2.0703-0.91797 3.6914 12.285 3.0469c0.50781 0.13672 0.99609 0.078126 1.4258-0.097656 0.50781-0.21484 0.97656-0.60547 1.3867-1.1133l6.8359-9.0625 14.551 6.9336 0.21484 9.2969h3.7891v-12.656c0-1.0156-1.0156-1.7578-2.1094-2.5586-3.2031-2.3438-6.3867-4.707-9.5898-7.0703l6.2109-12.656 5.3516 4.8047h9.3164c1.6602 0 2.1094-1.6406 1.6797-2.7734-0.23438-0.60547-0.80078-1.0742-1.6797-1.0742h-7.1094zm-54.727-7.0703 0.76172-1.1328 2.2656 1.5039-0.76172 1.1328c-3.4375 5.1562-5.3711 10.879-0.13672 14.355 2.7734 1.8359 6.9922 2.7344 11.68 2.8711l1.3672 0.039063-0.078126 2.7148-1.3672-0.039063c-14.688-0.39062-22.793-7.8516-13.73-21.445zm-12.891-6.4258 0.91797-1.0156 2.0117 1.8164-0.91797 1.0156c-9.0039 9.9609-7.5977 22.5 2.1875 31.367 3.7305 3.3789 8.6523 6.1914 14.609 8.0664l1.3086 0.41016-0.82031 2.5977-1.3086-0.41016c-10.684-3.3398-20.352-10.469-23.613-20.625-2.6953-8.3398-0.35156-16.621 5.625-23.223zm36.66-16.074 1.3086-0.37109 0.74219 2.6367-1.3086 0.37109c-8.3203 2.3242-19.141 7.6953-26.621 14.512-5.5859 5.0781-9.2578 10.918-8.4375 16.777 0.39062 2.7148 2.3438 6.8359 6.7383 10.332 3.2227 2.5586 7.7344 4.7461 13.887 5.7617l1.3477 0.21484-0.44922 2.6953-1.3477-0.21484c-6.6602-1.1133-11.602-3.5156-15.137-6.3281-5.0391-4.0039-7.2852-8.8672-7.7539-12.09-0.97656-6.875 3.0859-13.516 9.2969-19.16 7.8125-7.1094 19.082-12.695 27.734-15.137z"/>
</svg>
