<svg xmlns="http://www.w3.org/2000/svg" viewBox="0 0 100 100" aria-hidden="true">
  <title>Branchenfokussierte Expertise</title>
  <g fill="#d1eeeb">
    <path d="m82.812 56.25h-37.5v-39.062c0-0.86328-0.69922-1.5625-1.5625-1.5625h-4.0078c-0.70313 0-1.3164 0.46875-1.5039 1.1406l-1.3281 4.7461c-1.5469 0.30469-3.0703 0.71484-4.5391 1.2188l-3.4922-3.4297c-0.45703-0.44922-1.1484-0.57031-1.7383-0.30859-2.5352 1.1406-4.9609 2.5547-7.207 4.1914-0.51562 0.375-0.75 1.0312-0.59375 1.6484l1.2109 4.7617c-1.1797 1.0391-2.2969 2.1602-3.3281 3.3438l-4.7227-1.2188c-0.62109-0.16016-1.2812 0.078125-1.6562 0.60156-1.6289 2.2578-3.0312 4.6953-4.168 7.2422-0.26172 0.58203-0.14062 1.2656 0.30469 1.7266l3.418 3.5195c-0.50391 1.4844-0.91016 3.0156-1.2148 4.5703l-4.9102 1.3359c-0.67578 0.18359-1.1484 0.80078-1.1484 1.5078v8.0547c0 0.70312 0.47266 1.3203 1.1523 1.5078l4.9102 1.3359c0.30469 1.5547 0.71094 3.0859 1.2148 4.5703l-3.418 3.5156c-0.44531 0.46094-0.56641 1.1406-0.30469 1.7266 1.1328 2.5508 2.5352 4.9883 4.1641 7.2461 0.375 0.52344 1.0312 0.75391 1.6562 0.60156l4.7266-1.2188c1.0312 1.1836 2.1445 2.3047 3.3281 3.3438l-1.2148 4.7656c-0.15625 0.61719 0.078125 1.2734 0.59375 1.6484 2.2461 1.6367 4.6719 3.0469 7.207 4.1914 0.58594 0.26172 1.2773 0.14453 1.7344-0.30859l3.4922-3.4297c1.4727 0.50391 2.9922 0.91016 4.5391 1.2188l1.3281 4.7461c0.1875 0.67578 0.80469 1.1406 1.5039 1.1406h8.0156c0.70312 0 1.3164-0.46875 1.5039-1.1406l1.3281-4.7461c1.5469-0.30469 3.0664-0.71094 4.5391-1.2188l3.4922 3.4297c0.46094 0.45312 1.1484 0.57422 1.7383 0.30859 2.5352-1.1406 4.9609-2.5547 7.207-4.1914 0.51562-0.375 0.75-1.0312 0.59375-1.6484l-1.2109-4.7617c1.1797-1.0391 2.2969-2.1602 3.3281-3.3438l4.7266 1.2148c0.62109 0.16016 1.2812-0.078125 1.6562-0.60156 1.6289-2.2578 3.0312-4.6953 4.168-7.2422 0.26172-0.58203 0.14062-1.2656-0.30469-1.7266l-3.418-3.5195c0.50391-1.4844 0.91016-3.0156 1.2148-4.5703l4.9102-1.3359c0.67578-0.18359 1.1484-0.80078 1.1484-1.5078v-2.4648c0-0.86328-0.69922-1.5625-1.5625-1.5625zm-39.062 3.125h23.199c-1.5352 11.516-11.422 20.312-23.199 20.312-12.922 0-23.438-10.516-23.438-23.438 0-12.398 9.6797-22.578 21.875-23.387v24.949c0 0.86328 0.69922 1.5625 1.5625 1.5625zm32.793 0.99219c-0.58594 0.16016-1.0312 0.64844-1.1289 1.25-0.33594 2.0312-0.86719 4.0234-1.5742 5.9219-0.21094 0.56641-0.078125 1.2031 0.34375 1.6328l3.3438 3.4453c-0.80859 1.6914-1.7461 3.3203-2.7969 4.8672l-4.625-1.1914c-0.58594-0.14453-1.2109 0.054687-1.5938 0.52344-1.293 1.5703-2.7422 3.0312-4.3125 4.3359-0.46094 0.38281-0.66406 1.0039-0.51562 1.5859l1.1875 4.6641c-1.5352 1.0547-3.1523 1.9922-4.8281 2.8086l-3.418-3.3555c-0.43359-0.42578-1.0781-0.55859-1.6445-0.34766-1.8867 0.71094-3.8672 1.2422-5.8867 1.582-0.59766 0.10156-1.082 0.53906-1.2461 1.1211l-1.2773 4.5391h-5.6445l-1.2695-4.543c-0.16406-0.58203-0.64844-1.0195-1.2422-1.1211-2.0273-0.34375-4.0078-0.875-5.8906-1.582-0.56641-0.21094-1.2109-0.078125-1.6445 0.34766l-3.418 3.3555c-1.6758-0.8125-3.293-1.7539-4.8281-2.8086l1.1875-4.6641c0.14844-0.58594-0.050781-1.2031-0.51562-1.5859-1.5703-1.3047-3.0234-2.7656-4.3125-4.3359-0.38672-0.46875-1.0078-0.67188-1.5977-0.52344l-4.625 1.1914c-1.0508-1.543-1.9883-3.1719-2.8008-4.8594l3.3477-3.4453c0.42188-0.43359 0.55469-1.0703 0.34375-1.6328-0.70703-1.8984-1.2344-3.8906-1.5742-5.9219-0.10156-0.60156-0.54297-1.0898-1.1289-1.25l-4.707-1.2852v-5.6719l4.707-1.2812c0.58594-0.16016 1.0312-0.64844 1.1289-1.25 0.33594-2.0312 0.86719-4.0234 1.5742-5.9219 0.21094-0.56641 0.078125-1.2031-0.34375-1.6328l-3.3438-3.4453c0.80859-1.6914 1.7461-3.3203 2.7969-4.8672l4.625 1.1914c0.58594 0.14844 1.2109-0.050781 1.5938-0.52344 1.293-1.5703 2.7422-3.0312 4.3125-4.3359 0.46094-0.38281 0.66406-1.0039 0.51562-1.5859l-1.1875-4.6641c1.5352-1.0547 3.1523-1.9922 4.8281-2.8086l3.418 3.3555c0.43359 0.42578 1.0781 0.5625 1.6445 0.34766 1.8828-0.70703 3.8633-1.2383 5.8906-1.582 0.59766-0.10156 1.082-0.53906 1.2422-1.1211l1.2773-4.5391h1.2578v11.016c-13.918 0.81641-25 12.367-25 26.484 0 14.648 11.914 26.562 26.562 26.562 13.484 0 24.758-10.188 26.32-23.438h10.117z"/>
    <path d="m95.723 38.215-4.9102-1.3359c-0.30469-1.5547-0.71094-3.0859-1.2148-4.5703l3.418-3.5156c0.44531-0.46094 0.56641-1.1406 0.30469-1.7266-1.1367-2.5469-2.5391-4.9844-4.168-7.2422-0.375-0.52344-1.0312-0.75-1.6562-0.60156l-4.7266 1.2188c-1.0312-1.1836-2.1445-2.3047-3.3281-3.3438l1.2148-4.7656c0.15625-0.61719-0.078125-1.2734-0.59375-1.6484-2.2461-1.6367-4.6719-3.0469-7.207-4.1914-0.58594-0.25781-1.2734-0.14063-1.7344 0.30859l-3.4922 3.4297c-1.4727-0.50391-2.9922-0.91016-4.5391-1.2188l-1.3281-4.7461c-0.1875-0.67188-0.80078-1.1406-1.5039-1.1406h-4.0078c-0.86328 0-1.5625 0.69922-1.5625 1.5625v40.625c0 0.86328 0.69922 1.5625 1.5625 1.5625h39.062c0.86328 0 1.5625-0.69922 1.5625-1.5625v-5.5898c0-0.70703-0.47266-1.3242-1.1523-1.5078zm-37.91 5.5352v-23.387c12.195 0.80859 21.875 10.988 21.875 23.387zm35.938 0h-10.938c0-14.117-11.082-25.668-25-26.484v-11.016h1.2578l1.2695 4.543c0.16406 0.58203 0.64844 1.0195 1.2422 1.1211 2.0273 0.34375 4.0078 0.875 5.8906 1.582 0.56641 0.21484 1.2109 0.078125 1.6445-0.34766l3.418-3.3555c1.6758 0.8125 3.293 1.7539 4.8281 2.8086l-1.1875 4.6641c-0.14844 0.58594 0.050781 1.2031 0.51562 1.5859 1.5703 1.3047 3.0234 2.7656 4.3125 4.3359 0.38672 0.46875 1.0078 0.66797 1.5977 0.52344l4.625-1.1914c1.0469 1.5469 1.9844 3.1758 2.7969 4.8633l-3.3477 3.4453c-0.42188 0.43359-0.55469 1.0703-0.34375 1.6328 0.70703 1.8984 1.2344 3.8906 1.5742 5.9219 0.10156 0.60156 0.54297 1.0898 1.1289 1.25l4.7148 1.2812z"/>
    <path d="m42.188 62.5h3.125v3.125h-3.125z"/>
    <path d="m35.938 56.25h3.125v3.125h-3.125z"/>
    <path d="m60.938 37.5h3.125v3.125h-3.125z"/>
  </g>
</svg>
